<svg 
 xmlns="http://www.w3.org/2000/svg"
 xmlns:xlink="http://www.w3.org/1999/xlink"
 width="3.104cm" height="3.104cm">
<path fill-rule="evenodd"  fill="rgb(255, 255, 255)"
 d="M44.006,0.019 C19.724,0.019 0.019,19.724 0.019,44.005 C0.019,68.276 19.724,87.981 44.006,87.981 C68.276,87.981 87.981,68.276 87.981,44.005 C87.981,19.724 68.276,0.019 44.006,0.019 L44.006,0.019 ZM44.006,4.494 C59.621,4.494 73.115,13.600 79.526,26.758 L79.526,26.844 C79.563,27.307 79.613,27.779 79.600,28.281 C79.925,28.543 80.324,28.990 80.723,29.478 C81.621,31.748 82.244,34.130 82.718,36.573 C82.344,36.924 81.845,37.172 81.035,37.220 C76.956,34.005 80.947,40.751 83.192,39.529 C83.354,40.988 83.517,42.499 83.517,44.005 C83.517,53.784 79.900,62.651 74.013,69.547 C74.013,69.299 74.075,68.989 74.175,68.500 C76.919,65.171 76.408,58.600 70.820,59.321 C67.914,61.604 63.886,64.534 60.357,61.166 C56.677,57.850 58.386,52.364 60.444,48.635 C62.502,45.640 63.175,41.211 66.829,39.691 C70.434,40.516 74.849,40.266 76.171,35.864 C77.293,33.890 76.657,33.229 75.609,32.744 C75.497,32.707 75.435,32.707 75.373,32.671 C74.175,32.169 72.654,31.770 72.491,30.036 C73.564,28.192 71.294,24.415 70.421,27.793 C72.279,29.899 72.703,36.224 68.264,33.868 C69.847,36.400 62.539,34.777 63.949,38.331 C65.108,42.198 57.351,44.382 59.559,39.456 C60.806,35.825 58.985,30.375 62.202,28.041 C62.165,27.930 62.489,27.444 62.352,27.955 C62.464,27.882 62.552,27.779 62.676,27.718 C65.482,25.783 59.109,19.973 59.483,23.565 C62.227,24.999 60.718,27.894 58.049,26.446 C55.243,25.062 54.221,17.368 58.124,17.905 C61.067,18.291 58.261,15.184 56.927,13.674 C56.790,14.373 56.578,13.536 56.690,13.438 C56.628,13.363 56.503,13.253 56.440,13.189 C56.815,8.562 49.107,12.613 47.823,8.487 C42.971,6.081 37.421,5.944 32.021,6.331 C34.091,5.670 36.212,5.283 38.407,4.970 C38.619,4.945 38.831,4.920 39.043,4.895 C39.641,4.833 40.252,4.756 40.801,4.658 C41.849,4.571 42.921,4.494 43.994,4.494 L44.006,4.494 ZM27.481,9.759 C32.994,11.592 24.688,17.429 28.841,19.736 C29.265,19.724 29.601,19.836 29.951,19.973 C30.063,19.861 30.100,19.922 30.113,20.059 C31.971,20.921 32.370,23.578 29.315,23.403 C25.087,22.206 23.415,31.234 27.556,30.113 C29.078,25.860 33.667,27.656 34.503,31.385 C36.972,35.225 31.921,35.190 30.188,36.821 C31.934,39.967 27.120,38.307 25.324,39.855 C21.882,40.614 20.821,45.841 17.816,46.000 C17.691,40.528 8.574,42.374 10.071,47.349 C12.016,48.870 14.610,50.442 14.224,53.659 C14.074,60.444 22.418,58.213 26.122,61.805 C30.674,63.800 33.592,67.903 37.608,70.585 C41.088,69.400 47.523,72.705 44.081,76.881 C42.023,78.403 39.629,79.738 37.134,80.635 L37.134,80.721 C35.625,81.257 34.004,81.635 32.420,81.760 C29.352,80.812 26.434,79.477 23.727,77.842 C23.715,77.817 23.740,77.790 23.727,77.769 C22.493,74.177 19.188,71.955 16.943,69.062 C15.758,67.877 15.596,66.543 15.658,65.157 C15.683,65.147 15.633,65.083 15.658,65.071 C15.808,62.776 16.618,60.382 14.947,58.286 C12.341,53.933 9.061,49.944 7.364,45.116 C7.177,40.129 6.903,35.340 8.562,30.587 C12.254,23.004 21.458,14.910 27.481,9.759 L27.481,9.759 ZM39.217,15.909 C39.367,15.897 39.504,15.945 39.691,15.982 C40.651,15.982 40.327,17.055 39.691,17.342 C37.421,19.475 36.860,16.356 38.731,15.982 C38.868,15.957 39.055,15.909 39.217,15.909 L39.217,15.909 ZM42.323,16.618 C43.956,16.420 45.603,17.080 46.076,19.013 C47.224,23.590 42.659,26.547 40.963,30.277 C36.760,29.101 41.200,24.463 39.367,22.206 C36.848,19.599 39.591,16.969 42.323,16.618 L42.323,16.618 ZM34.104,21.171 C36.760,21.008 36.249,26.883 34.029,27.793 C32.083,26.011 34.640,23.389 33.542,21.333 C33.754,21.270 33.929,21.183 34.104,21.171 L34.104,21.171 ZM57.014,30.587 C57.887,30.538 59.833,31.435 59.646,32.671 C58.810,34.079 56.453,33.954 57.326,31.873 C56.378,30.986 56.490,30.624 57.014,30.587 L57.014,30.587 ZM34.029,36.662 C35.064,36.473 37.297,37.259 35.226,38.494 C35.887,37.795 34.740,38.057 34.578,38.095 C33.243,37.172 33.393,36.774 34.029,36.662 L34.029,36.662 ZM25.648,39.928 C25.935,39.967 25.548,40.352 25.161,40.254 L25.087,40.254 C25.025,40.227 24.974,40.141 24.925,40.090 C25.299,39.940 25.523,39.916 25.648,39.928 L25.648,39.928 ZM17.504,51.029 C17.679,50.978 17.878,51.003 18.140,51.029 C18.352,51.051 18.639,51.115 18.864,51.188 C18.864,51.227 18.851,51.202 18.864,51.265 C19.724,51.565 20.522,52.239 20.135,53.335 C19.475,53.597 18.776,53.123 18.377,52.626 C16.943,51.739 16.968,51.179 17.504,51.029 L17.504,51.029 Z"/>
</svg>