<svg xmlns="http://www.w3.org/2000/svg" width="1.87cm" height="2.681cm">
    <path fill-rule="evenodd" fill="#FFF" d="M46.94 75.995H6.048a6.057 6.057 0 0 1-6.057-6.058V6.329A6.058 6.058 0 0 1 6.048.271H46.94a6.058 6.058 0 0 1 6.057 6.058v63.608a6.057 6.057 0 0 1-6.057 6.058zm-20.635-1.704a4.828 4.828 0 1 0-.002-9.656 4.828 4.828 0 0 0 .002 9.656zm7.951-71.748H18.354a.947.947 0 1 0 0 1.893h15.902a.946.946 0 0 0 0-1.893zm14.766 4.165H3.398v55.846h45.624V6.708zM25.243 67.192h2.34c.635 0 1.153.515 1.153 1.151v2.523c0 .636-.518 1.151-1.153 1.151h-2.34a1.152 1.152 0 0 1-1.153-1.151v-2.523c0-.636.517-1.151 1.153-1.151z"/>
</svg>
