<svg 
 xmlns="http://www.w3.org/2000/svg"
 xmlns:xlink="http://www.w3.org/1999/xlink"
 width="2.54cm" height="2.575cm">
<path fill-rule="evenodd"  fill="rgb(255, 255, 255)"
 d="M70.412,68.372 L68.304,70.480 C66.188,72.596 62.757,72.596 60.640,70.480 L47.381,57.220 C42.621,60.202 36.995,61.928 30.964,61.928 C13.863,61.928 -0.000,48.065 -0.000,30.964 C-0.000,13.863 13.863,-0.000 30.964,-0.000 C48.065,-0.000 61.928,13.863 61.928,30.964 C61.928,37.030 60.183,42.687 57.168,47.464 L70.412,60.708 C72.529,62.824 72.529,66.256 70.412,68.372 ZM30.964,8.569 C18.596,8.569 8.569,18.596 8.569,30.964 C8.569,43.332 18.596,53.359 30.964,53.359 C43.332,53.359 53.359,43.332 53.359,30.964 C53.359,18.596 43.332,8.569 30.964,8.569 Z"/>
</svg>