<svg 
 xmlns="http://www.w3.org/2000/svg"
 xmlns:xlink="http://www.w3.org/1999/xlink"
 width="0.635cm" height="0.635cm">
<path fill-rule="evenodd"  fill="rgb(230, 118, 36)"
 d="M9.000,-0.001 C4.029,-0.001 -0.001,4.029 -0.001,9.000 C-0.001,13.971 4.029,18.001 9.000,18.001 C13.972,18.001 18.001,13.971 18.001,9.000 C18.001,4.029 13.972,-0.001 9.000,-0.001 ZM13.660,8.319 L9.580,12.399 C8.796,13.184 7.725,13.382 7.186,12.843 C7.179,12.836 7.175,12.826 7.168,12.819 C7.044,12.760 6.923,12.691 6.822,12.589 L4.354,10.121 C3.880,9.647 3.880,8.879 4.354,8.405 C4.828,7.931 5.596,7.931 6.071,8.405 L7.871,10.206 L11.709,6.368 C12.493,5.584 13.564,5.386 14.103,5.925 C14.642,6.464 14.443,7.536 13.660,8.319 Z"/>
</svg>