<svg 
 xmlns="http://www.w3.org/2000/svg"
 xmlns:xlink="http://www.w3.org/1999/xlink"
 width="2.258cm" height="2.434cm">
<path fill-rule="evenodd"  fill="rgb(255, 255, 255)"
 d="M62.642,5.282 C61.922,6.847 61.052,8.921 60.032,11.501 C59.004,14.084 57.928,16.860 56.784,19.833 C55.645,22.807 54.518,25.828 53.410,28.891 C52.295,31.955 51.289,34.721 50.389,37.179 C49.485,39.644 48.466,42.438 47.323,45.561 C46.840,46.642 46.307,47.617 45.703,48.487 C45.101,49.359 44.200,49.796 42.995,49.796 L11.825,49.796 C10.623,49.796 9.675,49.346 8.986,48.443 C8.291,47.542 7.800,46.585 7.500,45.561 L0.202,18.258 C-0.104,17.059 0.004,16.035 0.517,15.196 C1.025,14.353 2.358,13.934 4.523,13.934 L50.476,13.934 L55.887,2.223 C56.424,1.081 57.180,0.389 58.139,0.146 C59.101,-0.093 60.002,-0.015 60.836,0.375 C61.681,0.765 62.326,1.396 62.779,2.264 C63.227,3.137 63.183,4.143 62.642,5.282 ZM22.099,62.501 C22.099,64.304 21.461,65.832 20.199,67.094 C18.937,68.355 17.414,68.989 15.610,68.989 C13.746,68.989 12.186,68.355 10.924,67.094 C9.663,65.832 9.033,64.304 9.033,62.501 C9.033,60.700 9.663,59.154 10.924,57.858 C12.186,56.569 13.746,55.922 15.610,55.922 C17.414,55.922 18.937,56.569 20.199,57.858 C21.461,59.154 22.099,60.700 22.099,62.501 ZM44.712,62.501 C44.712,64.304 44.083,65.832 42.822,67.094 C41.559,68.355 40.027,68.989 38.225,68.989 C36.362,68.989 34.797,68.355 33.539,67.094 C32.277,65.832 31.645,64.304 31.645,62.501 C31.645,60.700 32.277,59.154 33.539,57.858 C34.797,56.569 36.362,55.922 38.225,55.922 C40.027,55.922 41.559,56.569 42.822,57.858 C44.083,59.154 44.712,60.700 44.712,62.501 Z"/>
</svg>